<svg width="0" height="0" class="hidden">
  <symbol viewBox="0 0 512 512" fill="none" xmlns="http://www.w3.org/2000/svg" id="theme">
    <path fill="currentColor"
          d="M283.211 512c78.962 0 151.079-35.925 198.857-94.792 7.068-8.708-.639-21.43-11.562-19.35-124.203 23.654-238.262-71.576-238.262-196.954 0-72.222 38.662-138.635 101.498-174.394 9.686-5.512 7.25-20.197-3.756-22.23A258.156 258.156 0 00283.211 0c-141.309 0-256 114.511-256 256 0 141.309 114.511 256 256 256z"/>
  </symbol>
  <symbol fill="none" xmlns="http://www.w3.org/2000/svg" viewBox="0 0 24 24" id="clock">
    <path d="M11.99 2A10 10 0 1012 21.99 10 10 0 0011.99 2zM12 20a8 8 0 110-16 8 8 0 010 16z" fill="currentColor"/>
    <path d="M12.5 7H11v6l5.25 3.15.75-1.23-4.5-2.67V7z" fill="currentColor"/>
  </symbol>
  <symbol xmlns="http://www.w3.org/2000/svg" fill="none" viewBox="0 0 256 293" id="discord">
    <path fill="#FFFFFF" d="M226.011 0H29.99C13.459 0 0 13.458 0 30.135v197.778c0 16.677 13.458 30.135 29.989 30.135h165.888l-7.754-27.063 18.725 17.408 17.7 16.384L256 292.571V30.135C256 13.458 242.542 0 226.011 0zm-56.466 191.05s-5.266-6.291-9.655-11.85c19.164-5.413 26.478-17.408 26.478-17.408-5.998 3.95-11.703 6.73-16.823 8.63-7.314 3.073-14.336 5.12-21.211 6.291-14.044 2.633-26.917 1.902-37.888-.146-8.339-1.61-15.507-3.95-21.504-6.29-3.365-1.317-7.022-2.926-10.68-4.974-.438-.293-.877-.439-1.316-.732a2.022 2.022 0 01-.585-.438c-2.633-1.463-4.096-2.487-4.096-2.487s7.022 11.703 25.6 17.261c-4.388 5.56-9.801 12.142-9.801 12.142-32.33-1.024-44.617-22.235-44.617-22.235 0-47.104 21.065-85.285 21.065-85.285 21.065-15.799 41.106-15.36 41.106-15.36l1.463 1.756C80.75 77.53 68.608 89.088 68.608 89.088s3.218-1.755 8.63-4.242c15.653-6.876 28.088-8.777 33.208-9.216.877-.147 1.609-.293 2.487-.293a123.777 123.777 0 0129.55-.292c13.896 1.609 28.818 5.705 44.031 14.043 0 0-11.556-10.971-36.425-18.578l2.048-2.34s20.041-.44 41.106 15.36c0 0 21.066 38.18 21.066 85.284 0 0-12.435 21.211-44.764 22.235v.001zm-68.023-68.316c-8.338 0-14.92 7.314-14.92 16.237 0 8.924 6.728 16.238 14.92 16.238 8.339 0 14.921-7.314 14.921-16.238.147-8.923-6.582-16.237-14.92-16.237h-.001zm53.395 0c-8.339 0-14.922 7.314-14.922 16.237 0 8.924 6.73 16.238 14.922 16.238 8.338 0 14.92-7.314 14.92-16.238 0-8.923-6.582-16.237-14.92-16.237z"/>
  </symbol>
  <symbol id="google" viewBox="0 0 24 24" xmlns="http://www.w3.org/2000/svg"><path fill="currentColor" d="M12.24 10.285V14.4h6.806c-.275 1.765-2.056 5.174-6.806 5.174-4.095 0-7.439-3.389-7.439-7.574s3.345-7.574 7.439-7.574c2.33 0 3.891.989 4.785 1.849l3.254-3.138C18.189 1.186 15.479 0 12.24 0c-6.635 0-12 5.365-12 12s5.365 12 12 12c6.926 0 11.52-4.869 11.52-11.726 0-.788-.085-1.39-.189-1.989H12.24z"/></symbol>
  <symbol viewBox="0 0 233 233" fill="none" xmlns="http://www.w3.org/2000/svg" id="steam">
    <defs><linearGradient id="a" x2="50%" x1="50%" y2="100%"><stop stop-color="#111D2E" offset="0"/><stop stop-color="#051839" offset=".21248"/><stop stop-color="#0A1B48" offset=".40695"/><stop stop-color="#132E62" offset=".5811"/><stop stop-color="#144B7E" offset=".7376"/><stop stop-color="#136497" offset=".87279"/><stop stop-color="#1387B8" offset="1"/></linearGradient></defs><path fill="url(#a)" d="M4.8911 150.01c14.393 48.01 58.916 82.99 111.61 82.99 64.34 0 116.5-52.16 116.5-116.5 0-64.341-52.16-116.5-116.5-116.5C54.7601 0 4.2411 48.029.2511 108.76c7.5391 12.66 10.481 20.49 4.6411 41.25z"/><path fill="#fff" d="M110.5 87.322c0 .196 0 .392.01.576L82.002 129.31c-4.618-.21-9.252.6-13.646 2.41-1.937.79-3.752 1.76-5.455 2.88L.302 108.83c.00049 0-1.4485 23.83 4.588 41.59l44.254 18.26c2.222 9.93 9.034 18.64 19.084 22.83 16.443 6.87 35.402-.96 42.242-17.41 1.78-4.3 2.61-8.81 2.49-13.31l40.79-29.15c.33.01.67.02 1 .02 24.41 0 44.25-19.9 44.25-44.338C199 62.882 179.16 43 154.75 43c-24.4 0-44.25 19.882-44.25 44.322zm-6.84 83.918c-5.294 12.71-19.9 18.74-32.596 13.45-5.857-2.44-10.279-6.91-12.83-12.24l14.405 5.97c9.363 3.9 20.105-.54 23.997-9.9 3.904-9.37-.525-20.13-9.883-24.03l-14.891-6.17c5.746-2.18 12.278-2.26 18.381.28 6.153 2.56 10.927 7.38 13.457 13.54s2.52 12.96-.04 19.1m51.09-54.38c-16.25 0-29.48-13.25-29.48-29.538 0-16.275 13.23-29.529 29.48-29.529 16.26 0 29.49 13.254 29.49 29.529 0 16.288-13.23 29.538-29.49 29.538m-22.09-29.583c0-12.253 9.92-22.191 22.14-22.191 12.23 0 22.15 9.938 22.15 22.191 0 12.254-9.92 22.183-22.15 22.183-12.22 0-22.14-9.929-22.14-22.183z"/>
  </symbol>
  <symbol fill="none" xmlns="http://www.w3.org/2000/svg" viewBox="0 0 16 16" id="comments">
    <path
      d="M1.5 8.42v-.16l-.1-.14A4.37 4.37 0 01.5 5.5c0-2.69 2.6-5 6-5s6 2.31 6 5-2.6 5-6 5c-.94 0-1.82-.19-2.61-.5l-.23-.1-.2.12-1.96 1.12V8.42zm6.88 4.9c3.14-.6 5.7-2.65 6.68-5.37.29.48.44 1 .44 1.55 0 .78-.31 1.53-.88 2.17l-.75.83h.63v2.64l-2.95-1.68-.15-.1-.18.04a7.47 7.47 0 01-2.84-.08z"
      fill="currentColor" stroke="currentColor"/>
  </symbol>
  <symbol fill="none" xmlns="http://www.w3.org/2000/svg" viewBox="0 0 24 24" id="trash">
    <path
      d="M5 20c0 1.1.9 2 2 2h10a2 2 0 002-2V8h2V6h-4V4a2 2 0 00-2-2H9a2 2 0 00-2 2v2H3v2h2v12zM9 4h6v2H9V4zM8 8h9v12H7V8h1z"
      fill="currentColor"/>
    <path d="M9 10h2v8H9v-8zm4 0h2v8h-2v-8z" fill="currentColor"/>
  </symbol>
  <symbol fill="none" xmlns="http://www.w3.org/2000/svg" viewBox="0 0 16 16" id="warning">
    <path
      d="M14.93 13.38L8.43 2.12A.5.5 0 008 1.88a.5.5 0 00-.43.25l-6.5 11.25a.5.5 0 00.43.76h13a.5.5 0 00.43-.76zM7.5 6.5c0-.07.06-.13.13-.13h.75c.06 0 .12.06.12.13v2.88c0 .06-.06.12-.12.12h-.75a.13.13 0 01-.13-.13V6.5zM8 12a.75.75 0 010-1.5.75.75 0 010 1.5z"
      fill="currentColor"/>
  </symbol>
  <symbol fill="none" xmlns="http://www.w3.org/2000/svg" viewBox="0 0 15 15" id="cross">
    <path
      d="M2.64 1.27L7.5 6.13l4.84-4.84A.92.92 0 0113 1a1 1 0 01.93 1.36.9.9 0 01-.2.3L8.84 7.5l4.89 4.89A.9.9 0 0114 13a1 1 0 01-1 1 .92.92 0 01-.69-.27L7.5 8.87l-4.85 4.85A.92.92 0 012 14a1 1 0 01-.93-1.36.9.9 0 01.2-.3L6.16 7.5 1.27 2.61A.9.9 0 011 2a1 1 0 011-1c.24 0 .47.1.64.27z"
      fill="currentColor"/>
  </symbol>
  <symbol fill="none" xmlns="http://www.w3.org/2000/svg" viewBox="0 0 24 24" id="check">
    <path
      d="M12 2a10.01 10.01 0 000 20 10.01 10.01 0 000-20zm-2 14.41l-3.71-3.7 1.41-1.42 2.3 2.3 5.3-5.3 1.4 1.42-6.7 6.7z"
      fill="currentColor"/>
  </symbol>
  <symbol viewBox="0 0 8 8" id="badge" fill="none" xmlns="http://www.w3.org/2000/svg">
    <path d="M4 0C2.9 0 2 .9 2 2s.9 2 2 2 2-.9 2-2-.9-2-2-2zM3 4.81V8l1-1 1 1V4.81c-.31.11-.65.19-1 .19s-.69-.08-1-.19z"
          fill="currentColor"/>
  </symbol>
  <symbol id="star" viewBox="0 0 16 16" fill="none" xmlns="http://www.w3.org/2000/svg">
    <path
      d="M14.189 5.517l-3.967-.576-1.774-3.596a.502.502 0 00-.897 0L5.778 4.941l-3.967.576a.5.5 0 00-.277.853l2.87 2.799-.678 3.951a.5.5 0 00.725.527L8 11.78l3.548 1.866a.5.5 0 00.725-.527l-.678-3.951 2.87-2.799a.498.498 0 00-.277-.853z"
      fill="currentColor"/>
  </symbol>
  <symbol fill="none" xmlns="http://www.w3.org/2000/svg" viewBox="0 0 12 12" id="lines">
    <path d="M11 0H1a1 1 0 00-1 1v2a1 1 0 001 1h10a1 1 0 001-1V1a1 1 0 00-1-1zM12 6H0v2h12V6zM7 10H0v2h7v-2z"
          fill="currentColor"/>
  </symbol>
  <symbol fill="none" xmlns="http://www.w3.org/2000/svg" viewBox="0 0 12 12" id="pen">
    <path d="M11.58.41a1.4 1.4 0 00-2 0L5 5 4 8l3-1 4.59-4.59a1.41 1.41 0 000-2z" fill="currentColor"/>
    <path d="M11.1 6.02a1 1 0 00-1.18.78A4 4 0 115.2 2.08 1 1 0 104.8.12a6 6 0 107.08 7.08 1 1 0 00-.78-1.18z"
          fill="currentColor"/>
  </symbol>
  <symbol id="cloud" xmlns="http://www.w3.org/2000/svg" fill="none" viewBox="0 0 20 17">
    <path stroke="currentColor" stroke-linecap="round" stroke-linejoin="round" stroke-width="2"
          d="M13.28 11.83L10 8.5m0 0l-3.27 3.33M10 8.5V16m6.87-2.18a4.24 4.24 0 00.55-6.95 4.04 4.04 0 00-2.5-.87h-1.04a6.71 6.71 0 00-3.7-4.43 6.44 6.44 0 00-7.92 2.16 6.73 6.73 0 00.38 8.35"/>
  </symbol>
  <symbol fill="none" xmlns="http://www.w3.org/2000/svg" viewBox="0 0 16 16" id="edit">
    <path d="M16 14H0v2h16v-2zM11.7 3.3c.4-.4.4-1 0-1.4L10.1.3c-.4-.4-1-.4-1.4 0L0 9v3h3l8.7-8.7z" fill="currentColor"/>
  </symbol>
  <symbol fill="none" xmlns="http://www.w3.org/2000/svg" viewBox="0 0 16 16" id="clone">
    <path d="M7 8H1c-.6 0-1 .4-1 1v6c0 .6.4 1 1 1h6c.6 0 1-.4 1-1V9c0-.6-.4-1-1-1z" fill="#DDE3E8"/>
    <path d="M11 4H2v2h8v8h2V5c0-.6-.4-1-1-1z" fill="#DDE3E8"/>
    <path d="M15 0H6v2h8v8h2V1c0-.6-.4-1-1-1z" fill="currentColor"/>
  </symbol>
  <symbol fill="none" xmlns="http://www.w3.org/2000/svg" viewBox="0 0 16 16" id="delete">
    <path fill-rule="evenodd" clip-rule="evenodd"
          d="M0 8c0-4.4 3.6-8 8-8s8 3.6 8 8-3.6 8-8 8-8-3.6-8-8zm10.1 3.5l1.4-1.4L9.4 8l2.1-2.1-1.4-1.4L8 6.6 5.9 4.5 4.5 5.9 6.6 8l-2.1 2.1 1.4 1.4L8 9.4l2.1 2.1z"
          fill="currentColor"/>
  </symbol>
  <symbol fill="none" xmlns="http://www.w3.org/2000/svg" viewBox="0 0 12 13" id="user">
    <path
      d="M9.54 6.69A4.27 4.27 0 016 9a4.27 4.27 0 01-3.54-2.31c-1.18.86-2 2.11-2.32 3.54a.5.5 0 00.2.51 9.99 9.99 0 0011.32 0 .5.5 0 00.2-.51 5.98 5.98 0 00-2.32-3.54z"
      fill="currentColor"/>
    <path d="M6 .5a3 3 0 00-3 3c0 1.61 1.26 4 3 4s3-2.39 3-4a3 3 0 00-3-3z" fill="currentColor"/>
  </symbol>
  <symbol id="lock" xmlns="http://www.w3.org/2000/svg" fill="none" viewBox="0 0 24 24">
    <path fill="currentColor" fill-rule="evenodd"
          d="M7 10V7a5 5 0 1110 0v3h1a2 2 0 012 2v8a2 2 0 01-2 2H6a2 2 0 01-2-2v-8a2 2 0 012-2h1zm-1 2v8h12v-8H6zm3-2h6V7a3 3 0 00-6 0v3zm5 4h2v4h-2v-4z"
          clip-rule="evenodd"/>
  </symbol>
</svg>
